<mxfile host="Electron" modified="2024-06-14T15:04:59.305Z" agent="Mozilla/5.0 (Windows NT 10.0; Win64; x64) AppleWebKit/537.36 (KHTML, like Gecko) draw.io/24.5.3 Chrome/124.0.6367.207 Electron/30.0.6 Safari/537.36" etag="nHH-CBbm9Vl7rLi1DSyH" version="24.5.3" type="device">
  <diagram name="Page-1" id="b91fa0-4r-KIM6ygSlS2">
    <mxGraphModel dx="19600" dy="12480" grid="0" gridSize="10" guides="1" tooltips="1" connect="0" arrows="1" fold="1" page="1" pageScale="1" pageWidth="2000" pageHeight="2000" background="#003366" math="0" shadow="1">
      <root>
        <mxCell id="0" />
        <mxCell id="1" parent="0" />
        <mxCell id="cDjqPKhRoQ2kevbqQMxa-1" value="&lt;h1 style=&quot;font-size: 40px;&quot;&gt;&lt;span style=&quot;background-color: initial;&quot;&gt;&lt;font style=&quot;font-size: 40px;&quot;&gt;Menu Três-traços&lt;/font&gt;&lt;/span&gt;&lt;/h1&gt;&lt;div style=&quot;font-size: 20px;&quot;&gt;&lt;ol&gt;&lt;li style=&quot;text-align: left;&quot;&gt;&lt;span style=&quot;background-color: initial;&quot;&gt;&lt;span&gt;Open Ai;&lt;/span&gt;&lt;/span&gt;&lt;/li&gt;&lt;li style=&quot;text-align: left;&quot;&gt;&lt;span style=&quot;background-color: initial;&quot;&gt;&lt;span&gt;New File;&lt;/span&gt;&lt;/span&gt;&lt;/li&gt;&lt;li style=&quot;text-align: left;&quot;&gt;&lt;span style=&quot;background-color: initial;&quot;&gt;&lt;span&gt;Open File;&lt;/span&gt;&lt;/span&gt;&lt;/li&gt;&lt;li style=&quot;text-align: left;&quot;&gt;&lt;span style=&quot;background-color: initial;&quot;&gt;&lt;span&gt;Open Folder;&lt;/span&gt;&lt;/span&gt;&lt;/li&gt;&lt;li style=&quot;text-align: left;&quot;&gt;&lt;span style=&quot;background-color: initial;&quot;&gt;&lt;span&gt;Save&lt;/span&gt;&lt;/span&gt;&lt;/li&gt;&lt;li style=&quot;text-align: left;&quot;&gt;&lt;span style=&quot;background-color: initial;&quot;&gt;&lt;span&gt;Versionamento;&lt;/span&gt;&lt;/span&gt;&lt;/li&gt;&lt;li style=&quot;text-align: left;&quot;&gt;&lt;span style=&quot;background-color: initial;&quot;&gt;&lt;span&gt;Idioma;&lt;/span&gt;&lt;/span&gt;&lt;/li&gt;&lt;li style=&quot;text-align: left;&quot;&gt;&lt;span style=&quot;background-color: initial;&quot;&gt;&lt;span&gt;GitHub;&lt;/span&gt;&lt;/span&gt;&lt;/li&gt;&lt;li style=&quot;text-align: left;&quot;&gt;&lt;span style=&quot;background-color: initial;&quot;&gt;&lt;span&gt;Open Terminal;&lt;/span&gt;&lt;/span&gt;&lt;/li&gt;&lt;li style=&quot;text-align: left;&quot;&gt;&lt;span style=&quot;background-color: initial;&quot;&gt;&lt;span&gt;Comandos;&lt;/span&gt;&lt;/span&gt;&lt;/li&gt;&lt;li style=&quot;text-align: left;&quot;&gt;&lt;span style=&quot;background-color: initial;&quot;&gt;&lt;span&gt;New Project&lt;/span&gt;&lt;/span&gt;&lt;/li&gt;&lt;/ol&gt;&lt;/div&gt;" style="whiteSpace=wrap;html=1;aspect=fixed;align=center;labelBackgroundColor=none;rounded=1;fontStyle=1;" parent="1" vertex="1">
          <mxGeometry x="-960" y="440" width="500" height="500" as="geometry" />
        </mxCell>
        <mxCell id="cDjqPKhRoQ2kevbqQMxa-14" style="edgeStyle=orthogonalEdgeStyle;rounded=1;orthogonalLoop=1;jettySize=auto;html=1;exitX=1;exitY=0.5;exitDx=0;exitDy=0;entryX=0;entryY=0.5;entryDx=0;entryDy=0;strokeWidth=10;labelBackgroundColor=none;fontColor=default;fontStyle=1" parent="1" source="cDjqPKhRoQ2kevbqQMxa-1" target="cDjqPKhRoQ2kevbqQMxa-13" edge="1">
          <mxGeometry relative="1" as="geometry">
            <mxPoint x="350" y="942" as="sourcePoint" />
            <mxPoint x="530" y="862" as="targetPoint" />
          </mxGeometry>
        </mxCell>
        <mxCell id="cDjqPKhRoQ2kevbqQMxa-15" value="&lt;h1&gt;&lt;span style=&quot;font-size: 18px;&quot;&gt;&lt;span style=&quot;font-size: 24px;&quot;&gt;Save&lt;/span&gt;&lt;/span&gt;&lt;/h1&gt;&lt;div style=&quot;font-size: 16px;&quot;&gt;&lt;div style=&quot;&quot;&gt;&lt;span&gt;Save Single File;&lt;/span&gt;&lt;/div&gt;&lt;div style=&quot;&quot;&gt;&lt;span&gt;&amp;nbsp;Save All Files;&lt;/span&gt;&lt;/div&gt;&lt;div style=&quot;&quot;&gt;&lt;span&gt;Save Backup;&lt;/span&gt;&lt;/div&gt;&lt;/div&gt;" style="whiteSpace=wrap;html=1;aspect=fixed;labelBackgroundColor=none;rounded=1;fontStyle=1" parent="1" vertex="1">
          <mxGeometry x="480" y="1120" width="300" height="300" as="geometry" />
        </mxCell>
        <mxCell id="cDjqPKhRoQ2kevbqQMxa-16" style="edgeStyle=orthogonalEdgeStyle;rounded=1;orthogonalLoop=1;jettySize=auto;html=1;exitX=1;exitY=0.75;exitDx=0;exitDy=0;entryX=0;entryY=0.5;entryDx=0;entryDy=0;strokeWidth=5;labelBackgroundColor=none;fontColor=default;fontStyle=1" parent="1" source="cDjqPKhRoQ2kevbqQMxa-6" target="cDjqPKhRoQ2kevbqQMxa-15" edge="1">
          <mxGeometry relative="1" as="geometry">
            <mxPoint x="349.9999999999998" y="807" as="sourcePoint" />
            <mxPoint x="530" y="1027" as="targetPoint" />
          </mxGeometry>
        </mxCell>
        <mxCell id="cDjqPKhRoQ2kevbqQMxa-17" value="&lt;h1&gt;&lt;span style=&quot;font-size: 18px;&quot;&gt;&lt;span style=&quot;font-size: 24px;&quot;&gt;Versionamento&lt;/span&gt;&lt;/span&gt;&lt;/h1&gt;&lt;div style=&quot;&quot;&gt;&lt;div style=&quot;&quot;&gt;&lt;font style=&quot;font-size: 16px;&quot;&gt;&lt;span&gt;Salvar em uma pasta o nome do arquivo seguindo seu versionamento (v1.0.54-proc.c)&lt;/span&gt;&lt;/font&gt;&lt;/div&gt;&lt;/div&gt;" style="whiteSpace=wrap;html=1;aspect=fixed;labelBackgroundColor=none;rounded=1;fontStyle=1" parent="1" vertex="1">
          <mxGeometry x="480" y="1520" width="300" height="300" as="geometry" />
        </mxCell>
        <mxCell id="cDjqPKhRoQ2kevbqQMxa-18" style="edgeStyle=orthogonalEdgeStyle;rounded=1;orthogonalLoop=1;jettySize=auto;html=1;entryX=0;entryY=0.5;entryDx=0;entryDy=0;strokeWidth=5;labelBackgroundColor=none;fontColor=default;exitX=0.467;exitY=1;exitDx=0;exitDy=0;exitPerimeter=0;fontStyle=1" parent="1" source="cDjqPKhRoQ2kevbqQMxa-11" target="cDjqPKhRoQ2kevbqQMxa-17" edge="1">
          <mxGeometry relative="1" as="geometry">
            <mxPoint x="116" y="852" as="sourcePoint" />
            <mxPoint x="540" y="1177" as="targetPoint" />
          </mxGeometry>
        </mxCell>
        <mxCell id="cDjqPKhRoQ2kevbqQMxa-19" value="&lt;h1&gt;&lt;span&gt;&lt;span style=&quot;&quot;&gt;Idioma&lt;/span&gt;&lt;/span&gt;&lt;/h1&gt;&lt;div style=&quot;font-size: 16px;&quot;&gt;&lt;div style=&quot;&quot;&gt;&lt;span&gt;&lt;span style=&quot;&quot;&gt;Mudar o idioma com &lt;/span&gt;&lt;font style=&quot;font-size: 16px;&quot;&gt;a &lt;/font&gt;&lt;span style=&quot;&quot;&gt;tag internacional data-i18n&lt;/span&gt;&lt;/span&gt;&lt;/div&gt;&lt;/div&gt;" style="whiteSpace=wrap;html=1;aspect=fixed;labelBackgroundColor=none;rounded=1;fontStyle=1" parent="1" vertex="1">
          <mxGeometry x="480" y="3280" width="300" height="300" as="geometry" />
        </mxCell>
        <mxCell id="cDjqPKhRoQ2kevbqQMxa-20" style="edgeStyle=orthogonalEdgeStyle;rounded=1;orthogonalLoop=1;jettySize=auto;html=1;exitX=1;exitY=0.75;exitDx=0;exitDy=0;entryX=0;entryY=0.5;entryDx=0;entryDy=0;strokeWidth=5;labelBackgroundColor=none;fontColor=default;fontStyle=1" parent="1" source="cDjqPKhRoQ2kevbqQMxa-11" target="cDjqPKhRoQ2kevbqQMxa-19" edge="1">
          <mxGeometry relative="1" as="geometry">
            <mxPoint x="360" y="992" as="sourcePoint" />
            <mxPoint x="550" y="1377" as="targetPoint" />
          </mxGeometry>
        </mxCell>
        <mxCell id="cDjqPKhRoQ2kevbqQMxa-23" value="&lt;h1&gt;&lt;span&gt;&lt;span style=&quot;&quot;&gt;Open Terminal&lt;/span&gt;&lt;/span&gt;&lt;/h1&gt;&lt;div style=&quot;&quot;&gt;&lt;div style=&quot;&quot;&gt;&lt;font style=&quot;font-size: 16px;&quot;&gt;&lt;span&gt;Abrir um dos ou todos os terminais disponíveis&lt;/span&gt;&lt;/font&gt;&lt;/div&gt;&lt;/div&gt;" style="whiteSpace=wrap;html=1;aspect=fixed;labelBackgroundColor=none;rounded=1;fontStyle=1" parent="1" vertex="1">
          <mxGeometry x="-240" y="2800" width="300" height="300" as="geometry" />
        </mxCell>
        <mxCell id="cDjqPKhRoQ2kevbqQMxa-24" style="edgeStyle=orthogonalEdgeStyle;rounded=1;orthogonalLoop=1;jettySize=auto;html=1;entryX=0;entryY=0.5;entryDx=0;entryDy=0;strokeWidth=10;labelBackgroundColor=none;fontColor=default;exitX=0.14;exitY=1.013;exitDx=0;exitDy=0;exitPerimeter=0;fontStyle=1" parent="1" source="cDjqPKhRoQ2kevbqQMxa-1" target="cDjqPKhRoQ2kevbqQMxa-23" edge="1">
          <mxGeometry relative="1" as="geometry">
            <mxPoint x="-878" y="137" as="sourcePoint" />
            <mxPoint x="550" y="1747" as="targetPoint" />
          </mxGeometry>
        </mxCell>
        <mxCell id="cDjqPKhRoQ2kevbqQMxa-25" value="&lt;h1&gt;&lt;span&gt;&lt;font style=&quot;font-size: 24px;&quot;&gt;Comandos&lt;/font&gt;&lt;/span&gt;&lt;/h1&gt;&lt;div style=&quot;font-size: 16px;&quot;&gt;&lt;div style=&quot;&quot;&gt;&lt;span&gt;Abrir menu exibindo todos os comandos da IDE e suas funções&lt;/span&gt;&lt;/div&gt;&lt;/div&gt;" style="whiteSpace=wrap;html=1;aspect=fixed;labelBackgroundColor=none;rounded=1;fontStyle=1" parent="1" vertex="1">
          <mxGeometry x="480" y="-80" width="300" height="300" as="geometry" />
        </mxCell>
        <mxCell id="cDjqPKhRoQ2kevbqQMxa-26" style="edgeStyle=orthogonalEdgeStyle;rounded=1;orthogonalLoop=1;jettySize=auto;html=1;exitX=0.838;exitY=-0.002;exitDx=0;exitDy=0;entryX=0;entryY=0.5;entryDx=0;entryDy=0;strokeWidth=10;labelBackgroundColor=none;fontColor=default;exitPerimeter=0;fontStyle=1" parent="1" source="cDjqPKhRoQ2kevbqQMxa-1" target="cDjqPKhRoQ2kevbqQMxa-25" edge="1">
          <mxGeometry relative="1" as="geometry">
            <mxPoint x="360" y="1012" as="sourcePoint" />
            <mxPoint x="560" y="1967" as="targetPoint" />
          </mxGeometry>
        </mxCell>
        <mxCell id="cDjqPKhRoQ2kevbqQMxa-29" value="&lt;h1&gt;&lt;span&gt;&lt;span style=&quot;&quot;&gt;New Project&lt;/span&gt;&lt;/span&gt;&lt;/h1&gt;&lt;div style=&quot;&quot;&gt;&lt;div style=&quot;&quot;&gt;&lt;font style=&quot;font-size: 16px;&quot;&gt;&lt;span&gt;Criar um novo projeto SAPHO de processador&lt;/span&gt;&lt;/font&gt;&lt;/div&gt;&lt;/div&gt;" style="whiteSpace=wrap;html=1;aspect=fixed;labelBackgroundColor=none;rounded=1;fontStyle=1" parent="1" vertex="1">
          <mxGeometry x="480" y="2560" width="300" height="300" as="geometry" />
        </mxCell>
        <mxCell id="cDjqPKhRoQ2kevbqQMxa-30" style="edgeStyle=orthogonalEdgeStyle;rounded=1;orthogonalLoop=1;jettySize=auto;html=1;exitX=1;exitY=0.5;exitDx=0;exitDy=0;entryX=0;entryY=0.5;entryDx=0;entryDy=0;strokeWidth=5;labelBackgroundColor=none;fontColor=default;fontStyle=1" parent="1" source="cDjqPKhRoQ2kevbqQMxa-21" target="cDjqPKhRoQ2kevbqQMxa-29" edge="1">
          <mxGeometry relative="1" as="geometry">
            <mxPoint x="343" y="975" as="sourcePoint" />
            <mxPoint x="553" y="2150" as="targetPoint" />
          </mxGeometry>
        </mxCell>
        <mxCell id="cDjqPKhRoQ2kevbqQMxa-31" value="&lt;div style=&quot;font-size: 16px;&quot;&gt;&lt;h1 style=&quot;&quot;&gt;&lt;span style=&quot;font-size: 18px;&quot;&gt;&lt;span style=&quot;font-size: 24px;&quot;&gt;SAPHO Project (spf)&lt;/span&gt;&lt;/span&gt;&lt;/h1&gt;&lt;div style=&quot;&quot;&gt;&lt;span style=&quot;&quot;&gt;&lt;span&gt;Nome do arquivo;&lt;/span&gt;&lt;/span&gt;&lt;/div&gt;&lt;div style=&quot;&quot;&gt;&lt;span style=&quot;&quot;&gt;&lt;span&gt;Diretório;&lt;/span&gt;&lt;/span&gt;&lt;/div&gt;&lt;div style=&quot;&quot;&gt;&lt;span style=&quot;&quot;&gt;&lt;span&gt;Nome do proc;&lt;/span&gt;&lt;/span&gt;&lt;/div&gt;&lt;div style=&quot;&quot;&gt;&lt;span style=&quot;&quot;&gt;&lt;span&gt;N. Bits;&lt;/span&gt;&lt;/span&gt;&lt;/div&gt;&lt;div style=&quot;&quot;&gt;&lt;span style=&quot;&quot;&gt;&lt;span&gt;Nb. Mantissa;&lt;/span&gt;&lt;/span&gt;&lt;/div&gt;&lt;div style=&quot;&quot;&gt;&lt;span style=&quot;&quot;&gt;&lt;span&gt;Nb. Expoente;&lt;/span&gt;&lt;/span&gt;&lt;/div&gt;&lt;div style=&quot;&quot;&gt;&lt;span style=&quot;&quot;&gt;&lt;span&gt;DSS;&lt;/span&gt;&lt;/span&gt;&lt;/div&gt;&lt;div style=&quot;&quot;&gt;&lt;span style=&quot;&quot;&gt;&lt;span&gt;ISS;&lt;/span&gt;&lt;/span&gt;&lt;/div&gt;&lt;div style=&quot;&quot;&gt;&lt;span style=&quot;&quot;&gt;&lt;span&gt;N. Input e Output;&lt;/span&gt;&lt;/span&gt;&lt;/div&gt;&lt;div style=&quot;&quot;&gt;&lt;span style=&quot;&quot;&gt;&lt;span&gt;Gain;&lt;/span&gt;&lt;/span&gt;&lt;/div&gt;&lt;div style=&quot;&quot;&gt;&lt;span style=&quot;&quot;&gt;&lt;span&gt;Aplicar mudanças do processador visualmente;&lt;/span&gt;&lt;/span&gt;&lt;/div&gt;&lt;div style=&quot;&quot;&gt;&lt;span style=&quot;&quot;&gt;&lt;span&gt;Criar arquivo .spf (exe/tar.gz) que abre automaticamente o projeto na IDE&lt;/span&gt;&lt;/span&gt;&lt;/div&gt;&lt;/div&gt;" style="whiteSpace=wrap;html=1;aspect=fixed;labelBackgroundColor=none;rounded=1;fontStyle=1" parent="1" vertex="1">
          <mxGeometry x="1280" y="2880" width="400" height="400" as="geometry" />
        </mxCell>
        <mxCell id="cDjqPKhRoQ2kevbqQMxa-32" style="edgeStyle=orthogonalEdgeStyle;rounded=1;orthogonalLoop=1;jettySize=auto;html=1;exitX=1;exitY=0.5;exitDx=0;exitDy=0;entryX=0;entryY=0.5;entryDx=0;entryDy=0;strokeWidth=5;labelBackgroundColor=none;fontColor=default;fontStyle=1" parent="1" source="cDjqPKhRoQ2kevbqQMxa-29" target="cDjqPKhRoQ2kevbqQMxa-31" edge="1">
          <mxGeometry relative="1" as="geometry">
            <mxPoint x="760" y="1031" as="sourcePoint" />
            <mxPoint x="963" y="2564" as="targetPoint" />
          </mxGeometry>
        </mxCell>
        <mxCell id="cDjqPKhRoQ2kevbqQMxa-52" value="&lt;div style=&quot;&quot;&gt;&lt;h1&gt;&lt;font style=&quot;font-size: 18px;&quot;&gt;&lt;span style=&quot;font-size: 24px;&quot;&gt;Tree View&lt;/span&gt;&lt;/font&gt;&lt;/h1&gt;&lt;font style=&quot;font-size: 16px;&quot;&gt;&lt;span&gt;Todas as pastas e arquivos aparecem no menu lateral (Árvore de Arquivos) com os respectivos ícones&lt;/span&gt;&lt;/font&gt;&lt;/div&gt;" style="whiteSpace=wrap;html=1;aspect=fixed;labelBackgroundColor=none;rounded=1;fontStyle=1" parent="1" vertex="1">
          <mxGeometry x="1034.5" y="880" width="300" height="300" as="geometry" />
        </mxCell>
        <mxCell id="cDjqPKhRoQ2kevbqQMxa-55" style="edgeStyle=orthogonalEdgeStyle;rounded=1;orthogonalLoop=1;jettySize=auto;html=1;exitX=1;exitY=0.25;exitDx=0;exitDy=0;entryX=0;entryY=0.5;entryDx=0;entryDy=0;strokeWidth=5;labelBackgroundColor=none;fontColor=default;fontStyle=1" parent="1" source="cDjqPKhRoQ2kevbqQMxa-13" target="cDjqPKhRoQ2kevbqQMxa-52" edge="1">
          <mxGeometry relative="1" as="geometry">
            <mxPoint x="715" y="887" as="sourcePoint" />
            <mxPoint x="1185" y="758" as="targetPoint" />
          </mxGeometry>
        </mxCell>
        <mxCell id="cDjqPKhRoQ2kevbqQMxa-59" value="&lt;h1 style=&quot;font-size: 40px;&quot;&gt;&lt;span style=&quot;background-color: initial;&quot;&gt;&lt;font style=&quot;font-size: 40px;&quot;&gt;Menu Barra Top&lt;/font&gt;&lt;/span&gt;&lt;/h1&gt;&lt;div style=&quot;font-size: 20px;&quot;&gt;&lt;ol style=&quot;&quot;&gt;&lt;li style=&quot;text-align: left;&quot;&gt;&lt;span&gt;Compilador CASM/&lt;span style=&quot;background-color: initial;&quot;&gt;ASMIF;&lt;/span&gt;&lt;/span&gt;&lt;/li&gt;&lt;li style=&quot;text-align: left;&quot;&gt;&lt;span&gt;Helper;&lt;/span&gt;&lt;/li&gt;&lt;/ol&gt;&lt;/div&gt;" style="whiteSpace=wrap;html=1;aspect=fixed;align=center;labelBackgroundColor=none;rounded=1;fontStyle=1" parent="1" vertex="1">
          <mxGeometry x="2520" y="-1204" width="500" height="500" as="geometry" />
        </mxCell>
        <mxCell id="cDjqPKhRoQ2kevbqQMxa-60" style="edgeStyle=orthogonalEdgeStyle;rounded=1;orthogonalLoop=1;jettySize=auto;html=1;exitX=1;exitY=0.5;exitDx=0;exitDy=0;entryX=0;entryY=0.5;entryDx=0;entryDy=0;strokeWidth=5;labelBackgroundColor=none;fontColor=default;fontStyle=1" parent="1" source="cDjqPKhRoQ2kevbqQMxa-15" target="cDjqPKhRoQ2kevbqQMxa-61" edge="1">
          <mxGeometry relative="1" as="geometry">
            <mxPoint x="855" y="1160" as="sourcePoint" />
            <mxPoint x="1045" y="1570" as="targetPoint" />
          </mxGeometry>
        </mxCell>
        <mxCell id="cDjqPKhRoQ2kevbqQMxa-61" value="&lt;h1&gt;&lt;span style=&quot;font-size: 18px;&quot;&gt;&lt;span style=&quot;font-size: 24px;&quot;&gt;Save&lt;/span&gt;&lt;/span&gt;&lt;/h1&gt;&lt;div style=&quot;&quot;&gt;&lt;div style=&quot;font-size: 16px;&quot;&gt;&lt;ol&gt;&lt;li style=&quot;text-align: left;&quot;&gt;&lt;span style=&quot;background-color: initial;&quot;&gt;Salvar modificações em um ou em todos os arquivos;&lt;/span&gt;&lt;/li&gt;&lt;li style=&quot;text-align: left;&quot;&gt;&lt;span style=&quot;background-color: initial;&quot;&gt;Salvar um Backup do projeto em outra pasta automaticamente a cada x horas ou deixar o usuário escolher onde/quando salvar;&lt;/span&gt;&lt;/li&gt;&lt;li style=&quot;text-align: left;&quot;&gt;&lt;span style=&quot;background-color: initial;&quot;&gt;Salvar Backup do ACG.&lt;/span&gt;&lt;/li&gt;&lt;/ol&gt;&lt;/div&gt;&lt;/div&gt;" style="whiteSpace=wrap;html=1;aspect=fixed;labelBackgroundColor=none;rounded=1;fontStyle=1" parent="1" vertex="1">
          <mxGeometry x="1280" y="1360" width="300" height="300" as="geometry" />
        </mxCell>
        <mxCell id="cDjqPKhRoQ2kevbqQMxa-64" value="&lt;h1 style=&quot;&quot;&gt;&lt;font style=&quot;font-size: 60px;&quot;&gt;SaphoIDE&lt;/font&gt;&lt;/h1&gt;&lt;h2 style=&quot;font-size: 14px;&quot;&gt;&lt;div style=&quot;text-align: left; font-size: 40px;&quot;&gt;&lt;ol&gt;&lt;li&gt;&lt;span style=&quot;background-color: initial;&quot;&gt;Menu Barra Top;&lt;/span&gt;&lt;/li&gt;&lt;li&gt;&lt;span style=&quot;background-color: initial;&quot;&gt;Menu Três-traços;&lt;/span&gt;&lt;/li&gt;&lt;li&gt;&lt;span style=&quot;background-color: initial;&quot;&gt;Code Editor;&lt;/span&gt;&lt;/li&gt;&lt;li&gt;&lt;span style=&quot;background-color: initial;&quot;&gt;Terminal;&lt;/span&gt;&lt;/li&gt;&lt;li&gt;&lt;span style=&quot;background-color: initial;&quot;&gt;Menu Barra Bottom;&lt;/span&gt;&lt;/li&gt;&lt;li&gt;&lt;span style=&quot;background-color: initial;&quot;&gt;Configuração Globa&lt;/span&gt;&lt;span style=&quot;background-color: initial;&quot;&gt;l;&lt;/span&gt;&lt;/li&gt;&lt;li&gt;&lt;span style=&quot;background-color: initial;&quot;&gt;Diretor&lt;/span&gt;&lt;/li&gt;&lt;/ol&gt;&lt;/div&gt;&lt;/h2&gt;" style="whiteSpace=wrap;html=1;aspect=fixed;align=center;labelBackgroundColor=none;rounded=1;fontStyle=1;" parent="1" vertex="1">
          <mxGeometry x="-270" y="-1320" width="700" height="700" as="geometry" />
        </mxCell>
        <mxCell id="cDjqPKhRoQ2kevbqQMxa-65" style="edgeStyle=orthogonalEdgeStyle;rounded=1;orthogonalLoop=1;jettySize=auto;html=1;exitX=0.5;exitY=1;exitDx=0;exitDy=0;strokeWidth=30;labelBackgroundColor=none;fontColor=default;entryX=0.5;entryY=0;entryDx=0;entryDy=0;fontStyle=1" parent="1" source="cDjqPKhRoQ2kevbqQMxa-64" target="cDjqPKhRoQ2kevbqQMxa-1" edge="1">
          <mxGeometry relative="1" as="geometry">
            <mxPoint x="177" y="629.4300000000001" as="sourcePoint" />
            <mxPoint x="442" y="452" as="targetPoint" />
          </mxGeometry>
        </mxCell>
        <mxCell id="cDjqPKhRoQ2kevbqQMxa-66" style="edgeStyle=orthogonalEdgeStyle;rounded=1;orthogonalLoop=1;jettySize=auto;html=1;exitX=0.75;exitY=0;exitDx=0;exitDy=0;strokeWidth=30;labelBackgroundColor=none;fontColor=default;entryX=0;entryY=0.5;entryDx=0;entryDy=0;fontStyle=1" parent="1" source="cDjqPKhRoQ2kevbqQMxa-64" target="cDjqPKhRoQ2kevbqQMxa-59" edge="1">
          <mxGeometry relative="1" as="geometry">
            <mxPoint x="778" y="190" as="sourcePoint" />
            <mxPoint x="588" y="487" as="targetPoint" />
          </mxGeometry>
        </mxCell>
        <mxCell id="cDjqPKhRoQ2kevbqQMxa-67" value="&lt;h1 style=&quot;font-size: 40px;&quot;&gt;&lt;font style=&quot;font-size: 40px;&quot;&gt;Code Editor&lt;/font&gt;&lt;/h1&gt;&lt;div style=&quot;font-size: 20px;&quot;&gt;&lt;div style=&quot;&quot;&gt;&lt;div style=&quot;text-align: left;&quot;&gt;&lt;ol&gt;&lt;li&gt;&lt;span style=&quot;background-color: initial;&quot;&gt;Usar MONACO com preset C;&lt;/span&gt;&lt;/li&gt;&lt;li&gt;&lt;span style=&quot;background-color: initial;&quot;&gt;Permitir realce de sintaxe;&lt;/span&gt;&lt;/li&gt;&lt;/ol&gt;&lt;/div&gt;&lt;/div&gt;&lt;/div&gt;" style="whiteSpace=wrap;html=1;aspect=fixed;align=center;labelBackgroundColor=none;rounded=1;fontStyle=1" parent="1" vertex="1">
          <mxGeometry x="2520" y="-640" width="500" height="500" as="geometry" />
        </mxCell>
        <mxCell id="cDjqPKhRoQ2kevbqQMxa-68" value="&lt;h1 style=&quot;font-size: 40px;&quot;&gt;&lt;font style=&quot;font-size: 40px;&quot;&gt;Terminal&lt;/font&gt;&lt;/h1&gt;&lt;h2 style=&quot;font-size: 20px;&quot;&gt;&lt;div style=&quot;&quot;&gt;&lt;div style=&quot;&quot;&gt;&lt;div style=&quot;text-align: left;&quot;&gt;&lt;ol&gt;&lt;li&gt;&lt;span style=&quot;background-color: initial;&quot;&gt;Terminal Debug;&lt;/span&gt;&lt;/li&gt;&lt;li&gt;&lt;span style=&quot;background-color: initial;&quot;&gt;Terminal CMD/GNOME;&lt;/span&gt;&lt;/li&gt;&lt;li&gt;&lt;span style=&quot;background-color: initial;&quot;&gt;Terminal Interno.&lt;/span&gt;&lt;/li&gt;&lt;/ol&gt;&lt;/div&gt;&lt;/div&gt;&lt;/div&gt;&lt;/h2&gt;" style="whiteSpace=wrap;html=1;aspect=fixed;align=center;labelBackgroundColor=none;rounded=1;fontStyle=1" parent="1" vertex="1">
          <mxGeometry x="2520" y="-80" width="500" height="500" as="geometry" />
        </mxCell>
        <mxCell id="cDjqPKhRoQ2kevbqQMxa-69" value="&lt;h1 style=&quot;font-size: 40px;&quot;&gt;&lt;font style=&quot;font-size: 40px;&quot;&gt;Menu Barra Bottom&lt;/font&gt;&lt;/h1&gt;&lt;div style=&quot;font-size: 20px;&quot;&gt;&lt;div style=&quot;text-align: left;&quot;&gt;&lt;ol&gt;&lt;li&gt;&lt;span style=&quot;background-color: initial;&quot;&gt;&lt;span&gt;About;&lt;/span&gt;&lt;/span&gt;&lt;/li&gt;&lt;li&gt;&lt;span style=&quot;background-color: initial;&quot;&gt;&lt;span&gt;Command Help;&lt;/span&gt;&lt;/span&gt;&lt;/li&gt;&lt;li&gt;&lt;span style=&quot;background-color: initial;&quot;&gt;&lt;span&gt;Shortcut Help;&lt;/span&gt;&lt;/span&gt;&lt;/li&gt;&lt;li&gt;&lt;span style=&quot;background-color: initial;&quot;&gt;&lt;span&gt;Settings.&lt;/span&gt;&lt;/span&gt;&lt;/li&gt;&lt;li&gt;&lt;span style=&quot;background-color: initial;&quot;&gt;&lt;span&gt;Realce de Sintaxe;&lt;/span&gt;&lt;/span&gt;&lt;/li&gt;&lt;li&gt;&lt;span style=&quot;background-color: initial;&quot;&gt;&lt;span&gt;Tema.&lt;/span&gt;&lt;/span&gt;&lt;/li&gt;&lt;/ol&gt;&lt;/div&gt;&lt;/div&gt;" style="whiteSpace=wrap;html=1;aspect=fixed;align=center;labelBackgroundColor=none;rounded=1;fontStyle=1" parent="1" vertex="1">
          <mxGeometry x="2520" y="480" width="500" height="500" as="geometry" />
        </mxCell>
        <mxCell id="cDjqPKhRoQ2kevbqQMxa-70" value="&lt;h1 style=&quot;font-size: 80px;&quot;&gt;&lt;font style=&quot;font-size: 80px;&quot;&gt;Electron&lt;/font&gt;&lt;/h1&gt;&lt;div style=&quot;text-align: left; font-size: 60px;&quot;&gt;&lt;span style=&quot;&quot;&gt;&lt;font style=&quot;font-size: 60px;&quot;&gt;&lt;font style=&quot;font-size: 60px;&quot;&gt;1. &lt;/font&gt;&lt;font style=&quot;font-size: 60px;&quot;&gt;SaphoIDE&lt;/font&gt;&lt;/font&gt;&lt;/span&gt;&lt;/div&gt;" style="whiteSpace=wrap;html=1;aspect=fixed;align=center;labelBackgroundColor=none;rounded=1;fontStyle=1;" parent="1" vertex="1">
          <mxGeometry x="-1840" y="-1954" width="800" height="800" as="geometry" />
        </mxCell>
        <mxCell id="cDjqPKhRoQ2kevbqQMxa-71" style="edgeStyle=orthogonalEdgeStyle;rounded=1;orthogonalLoop=1;jettySize=auto;html=1;strokeWidth=30;labelBackgroundColor=none;fontColor=default;entryX=0;entryY=0.5;entryDx=0;entryDy=0;exitX=1.003;exitY=0.214;exitDx=0;exitDy=0;exitPerimeter=0;fontStyle=1" parent="1" source="cDjqPKhRoQ2kevbqQMxa-64" target="cDjqPKhRoQ2kevbqQMxa-67" edge="1">
          <mxGeometry relative="1" as="geometry">
            <mxPoint x="555" y="-1050" as="sourcePoint" />
            <mxPoint x="746" y="272" as="targetPoint" />
          </mxGeometry>
        </mxCell>
        <mxCell id="cDjqPKhRoQ2kevbqQMxa-72" style="edgeStyle=orthogonalEdgeStyle;rounded=1;orthogonalLoop=1;jettySize=auto;html=1;exitX=1;exitY=0.473;exitDx=0;exitDy=0;strokeWidth=30;labelBackgroundColor=none;fontColor=default;entryX=0;entryY=0.5;entryDx=0;entryDy=0;exitPerimeter=0;fontStyle=1" parent="1" source="cDjqPKhRoQ2kevbqQMxa-64" target="cDjqPKhRoQ2kevbqQMxa-68" edge="1">
          <mxGeometry relative="1" as="geometry">
            <mxPoint x="626" y="243" as="sourcePoint" />
            <mxPoint x="1142" y="480" as="targetPoint" />
          </mxGeometry>
        </mxCell>
        <mxCell id="cDjqPKhRoQ2kevbqQMxa-73" style="edgeStyle=orthogonalEdgeStyle;rounded=1;orthogonalLoop=1;jettySize=auto;html=1;strokeWidth=30;labelBackgroundColor=none;fontColor=default;entryX=0;entryY=0.5;entryDx=0;entryDy=0;exitX=1;exitY=0.767;exitDx=0;exitDy=0;exitPerimeter=0;fontStyle=1" parent="1" source="cDjqPKhRoQ2kevbqQMxa-64" target="cDjqPKhRoQ2kevbqQMxa-69" edge="1">
          <mxGeometry relative="1" as="geometry">
            <mxPoint x="615" y="-530" as="sourcePoint" />
            <mxPoint x="1436" y="793" as="targetPoint" />
          </mxGeometry>
        </mxCell>
        <mxCell id="cDjqPKhRoQ2kevbqQMxa-74" style="edgeStyle=orthogonalEdgeStyle;rounded=1;orthogonalLoop=1;jettySize=auto;html=1;exitX=1;exitY=0.5;exitDx=0;exitDy=0;strokeWidth=40;labelBackgroundColor=none;fontColor=default;entryX=0.25;entryY=0;entryDx=0;entryDy=0;fontStyle=1" parent="1" source="cDjqPKhRoQ2kevbqQMxa-70" target="cDjqPKhRoQ2kevbqQMxa-64" edge="1">
          <mxGeometry relative="1" as="geometry">
            <mxPoint x="-241" y="-637" as="sourcePoint" />
            <mxPoint x="979" y="-644" as="targetPoint" />
          </mxGeometry>
        </mxCell>
        <mxCell id="cDjqPKhRoQ2kevbqQMxa-77" value="" style="edgeStyle=orthogonalEdgeStyle;rounded=1;orthogonalLoop=1;jettySize=auto;html=1;exitX=0.5;exitY=1;exitDx=0;exitDy=0;entryX=0;entryY=0.5;entryDx=0;entryDy=0;strokeWidth=10;labelBackgroundColor=none;fontColor=default;fontStyle=1" parent="1" source="cDjqPKhRoQ2kevbqQMxa-1" target="cDjqPKhRoQ2kevbqQMxa-2" edge="1">
          <mxGeometry relative="1" as="geometry">
            <mxPoint x="-737" y="252" as="sourcePoint" />
            <mxPoint x="1270" y="2262" as="targetPoint" />
          </mxGeometry>
        </mxCell>
        <mxCell id="cDjqPKhRoQ2kevbqQMxa-2" value="&lt;h1&gt;&lt;font style=&quot;font-size: 18px;&quot;&gt;&lt;span style=&quot;font-size: 24px;&quot;&gt;Open AI&lt;/span&gt;&lt;/font&gt;&lt;/h1&gt;&lt;div style=&quot;&quot;&gt;&lt;font style=&quot;font-size: 16px;&quot;&gt;&lt;span&gt;Abre a inteligênncia artificial para assistir o usuário&lt;/span&gt;&lt;/font&gt;&lt;/div&gt;" style="whiteSpace=wrap;html=1;aspect=fixed;labelBackgroundColor=none;rounded=1;fontStyle=1" parent="1" vertex="1">
          <mxGeometry x="-240" y="2000" width="300" height="300" as="geometry" />
        </mxCell>
        <mxCell id="cDjqPKhRoQ2kevbqQMxa-78" value="" style="edgeStyle=orthogonalEdgeStyle;rounded=1;orthogonalLoop=1;jettySize=auto;html=1;exitX=1;exitY=0.25;exitDx=0;exitDy=0;entryX=0;entryY=0.5;entryDx=0;entryDy=0;strokeWidth=10;labelBackgroundColor=none;fontColor=default;fontStyle=1" parent="1" source="cDjqPKhRoQ2kevbqQMxa-1" target="cDjqPKhRoQ2kevbqQMxa-6" edge="1">
          <mxGeometry relative="1" as="geometry">
            <mxPoint x="-737" y="252" as="sourcePoint" />
            <mxPoint x="620" y="1266" as="targetPoint" />
          </mxGeometry>
        </mxCell>
        <mxCell id="cDjqPKhRoQ2kevbqQMxa-6" value="&lt;h1 style=&quot;font-size: 24px;&quot;&gt;&lt;font style=&quot;font-size: 24px;&quot;&gt;&lt;span style=&quot;&quot;&gt;New File&lt;/span&gt;&lt;/font&gt;&lt;/h1&gt;&lt;div style=&quot;font-size: 16px;&quot;&gt;&lt;font style=&quot;font-size: 16px;&quot;&gt;Criação de arquivos de texto (inicialmente)&lt;/font&gt;&lt;/div&gt;" style="whiteSpace=wrap;html=1;aspect=fixed;labelBackgroundColor=none;rounded=1;fontStyle=1;" parent="1" vertex="1">
          <mxGeometry x="-240" y="240" width="300" height="300" as="geometry" />
        </mxCell>
        <mxCell id="cDjqPKhRoQ2kevbqQMxa-79" value="" style="edgeStyle=orthogonalEdgeStyle;rounded=1;orthogonalLoop=1;jettySize=auto;html=1;exitX=0.75;exitY=1;exitDx=0;exitDy=0;entryX=0;entryY=0.5;entryDx=0;entryDy=0;strokeWidth=10;labelBackgroundColor=none;fontColor=default;fontStyle=1" parent="1" source="cDjqPKhRoQ2kevbqQMxa-1" target="cDjqPKhRoQ2kevbqQMxa-11" edge="1">
          <mxGeometry relative="1" as="geometry">
            <mxPoint x="-737" y="252" as="sourcePoint" />
            <mxPoint x="880" y="1657" as="targetPoint" />
          </mxGeometry>
        </mxCell>
        <mxCell id="cDjqPKhRoQ2kevbqQMxa-11" value="&lt;h1&gt;&lt;font style=&quot;font-size: 18px;&quot;&gt;&lt;span style=&quot;font-size: 24px;&quot;&gt;Open File&lt;/span&gt;&lt;/font&gt;&lt;/h1&gt;&lt;div&gt;&lt;div style=&quot;&quot;&gt;&lt;font style=&quot;font-size: 16px;&quot;&gt;&lt;span&gt;Abrir o arquivo na árvore de arquivos&lt;/span&gt;&lt;/font&gt;&lt;/div&gt;&lt;/div&gt;" style="whiteSpace=wrap;html=1;aspect=fixed;labelBackgroundColor=none;rounded=1;fontStyle=1" parent="1" vertex="1">
          <mxGeometry x="-240" y="1120" width="300" height="300" as="geometry" />
        </mxCell>
        <mxCell id="cDjqPKhRoQ2kevbqQMxa-80" value="" style="edgeStyle=orthogonalEdgeStyle;rounded=1;orthogonalLoop=1;jettySize=auto;html=1;exitX=0.313;exitY=1;exitDx=0;exitDy=0;entryX=0;entryY=0.5;entryDx=0;entryDy=0;strokeWidth=10;labelBackgroundColor=none;fontColor=default;exitPerimeter=0;fontStyle=1" parent="1" source="cDjqPKhRoQ2kevbqQMxa-1" target="cDjqPKhRoQ2kevbqQMxa-21" edge="1">
          <mxGeometry relative="1" as="geometry">
            <mxPoint x="-27" y="252" as="sourcePoint" />
            <mxPoint x="1404" y="2465" as="targetPoint" />
          </mxGeometry>
        </mxCell>
        <mxCell id="cDjqPKhRoQ2kevbqQMxa-21" value="&lt;h1&gt;&lt;span style=&quot;&quot;&gt;&lt;font style=&quot;font-size: 24px;&quot;&gt;GitHub&lt;/font&gt;&lt;/span&gt;&lt;/h1&gt;&lt;div style=&quot;&quot;&gt;&lt;div style=&quot;&quot;&gt;&lt;font style=&quot;font-size: 16px;&quot;&gt;&lt;span&gt;Integração com o GitHub para salvar arquivos no repositório&lt;/span&gt;&lt;/font&gt;&lt;/div&gt;&lt;/div&gt;" style="whiteSpace=wrap;html=1;aspect=fixed;labelBackgroundColor=none;rounded=1;fontStyle=1" parent="1" vertex="1">
          <mxGeometry x="-240" y="2400" width="300" height="300" as="geometry" />
        </mxCell>
        <mxCell id="cDjqPKhRoQ2kevbqQMxa-81" value="" style="edgeStyle=orthogonalEdgeStyle;rounded=1;orthogonalLoop=1;jettySize=auto;html=1;exitX=1;exitY=0.25;exitDx=0;exitDy=0;entryX=0;entryY=0.5;entryDx=0;entryDy=0;strokeWidth=5;labelBackgroundColor=none;fontColor=default;fontStyle=1" parent="1" source="cDjqPKhRoQ2kevbqQMxa-11" target="cDjqPKhRoQ2kevbqQMxa-13" edge="1">
          <mxGeometry relative="1" as="geometry">
            <mxPoint x="177" y="755" as="sourcePoint" />
            <mxPoint x="846" y="517" as="targetPoint" />
          </mxGeometry>
        </mxCell>
        <mxCell id="cDjqPKhRoQ2kevbqQMxa-82" value="&lt;h1&gt;&lt;span&gt;&lt;span style=&quot;&quot;&gt;Compilador CASM and ASMIF&lt;/span&gt;&lt;/span&gt;&lt;/h1&gt;&lt;div style=&quot;text-align: left; font-size: 16px;&quot;&gt;&lt;ol&gt;&lt;li&gt;&lt;span style=&quot;background-color: initial;&quot;&gt;&lt;span&gt;Compilador CASM;&lt;/span&gt;&lt;/span&gt;&lt;/li&gt;&lt;li&gt;&lt;span style=&quot;background-color: initial;&quot;&gt;&lt;span&gt;Compilador ASMIF;&lt;/span&gt;&lt;/span&gt;&lt;/li&gt;&lt;li&gt;&lt;span style=&quot;background-color: initial;&quot;&gt;&lt;span&gt;Compilador GCC;&lt;/span&gt;&lt;/span&gt;&lt;/li&gt;&lt;li&gt;&lt;span style=&quot;background-color: initial;&quot;&gt;&lt;span&gt;Compilador Personalizado&lt;/span&gt;&lt;/span&gt;&lt;/li&gt;&lt;/ol&gt;&lt;/div&gt;" style="whiteSpace=wrap;html=1;aspect=fixed;labelBackgroundColor=none;rounded=1;fontStyle=1" parent="1" vertex="1">
          <mxGeometry x="3760" y="-720" width="300" height="300" as="geometry" />
        </mxCell>
        <mxCell id="cDjqPKhRoQ2kevbqQMxa-83" value="" style="edgeStyle=orthogonalEdgeStyle;rounded=1;orthogonalLoop=1;jettySize=auto;html=1;entryX=0;entryY=0.5;entryDx=0;entryDy=0;strokeWidth=10;labelBackgroundColor=none;fontColor=default;exitX=1;exitY=0.832;exitDx=0;exitDy=0;exitPerimeter=0;fontStyle=1" parent="1" source="cDjqPKhRoQ2kevbqQMxa-59" target="cDjqPKhRoQ2kevbqQMxa-82" edge="1">
          <mxGeometry relative="1" as="geometry">
            <mxPoint x="2712" y="-1032" as="sourcePoint" />
            <mxPoint x="2884" y="513" as="targetPoint" />
          </mxGeometry>
        </mxCell>
        <mxCell id="cDjqPKhRoQ2kevbqQMxa-88" style="edgeStyle=orthogonalEdgeStyle;rounded=1;orthogonalLoop=1;jettySize=auto;html=1;exitX=1;exitY=0.5;exitDx=0;exitDy=0;entryX=0.003;entryY=0.189;entryDx=0;entryDy=0;fontSize=5;strokeWidth=5;shadow=0;curved=0;entryPerimeter=0;labelBackgroundColor=none;fontColor=default;fontStyle=1" parent="1" source="cDjqPKhRoQ2kevbqQMxa-87" target="cDjqPKhRoQ2kevbqQMxa-64" edge="1">
          <mxGeometry relative="1" as="geometry" />
        </mxCell>
        <mxCell id="cDjqPKhRoQ2kevbqQMxa-87" value="&lt;font style=&quot;font-size: 14px;&quot;&gt;&lt;span&gt;Suportar Windows e Linux&lt;/span&gt;&lt;/font&gt;" style="rounded=1;whiteSpace=wrap;html=1;fontStyle=1;labelBackgroundColor=none;" parent="1" vertex="1">
          <mxGeometry x="-760" y="-1280" width="200" height="60" as="geometry" />
        </mxCell>
        <mxCell id="cDjqPKhRoQ2kevbqQMxa-89" style="edgeStyle=orthogonalEdgeStyle;rounded=1;orthogonalLoop=1;jettySize=auto;html=1;exitX=1;exitY=0.5;exitDx=0;exitDy=0;entryX=0.5;entryY=0;entryDx=0;entryDy=0;fontSize=5;strokeWidth=5;shadow=0;curved=0;labelBackgroundColor=none;fontColor=default;fontStyle=1" parent="1" source="cDjqPKhRoQ2kevbqQMxa-90" target="cDjqPKhRoQ2kevbqQMxa-82" edge="1">
          <mxGeometry relative="1" as="geometry">
            <mxPoint x="2447" y="-530" as="targetPoint" />
          </mxGeometry>
        </mxCell>
        <mxCell id="cDjqPKhRoQ2kevbqQMxa-90" value="&lt;span&gt;&lt;font style=&quot;font-size: 14px;&quot;&gt;Suportar Windows e Linux&lt;/font&gt;&lt;/span&gt;" style="rounded=1;whiteSpace=wrap;html=1;labelBackgroundColor=none;fontStyle=1" parent="1" vertex="1">
          <mxGeometry x="3471" y="-800" width="200" height="60" as="geometry" />
        </mxCell>
        <mxCell id="cDjqPKhRoQ2kevbqQMxa-92" value="&lt;h1&gt;&lt;font style=&quot;font-size: 24px;&quot;&gt;Helper&lt;/font&gt;&lt;/h1&gt;&lt;div style=&quot;text-align: left;&quot;&gt;&lt;ol style=&quot;&quot;&gt;&lt;li style=&quot;&quot;&gt;&lt;font style=&quot;font-size: 16px;&quot;&gt;&lt;span&gt;Adicionar uma barra «Helper» que leva o usuário até a janela digitada&lt;/span&gt;&lt;/font&gt;&lt;/li&gt;&lt;/ol&gt;&lt;/div&gt;" style="whiteSpace=wrap;html=1;aspect=fixed;labelBackgroundColor=none;rounded=1;fontStyle=1" parent="1" vertex="1">
          <mxGeometry x="3762" y="-1120" width="300" height="300" as="geometry" />
        </mxCell>
        <mxCell id="cDjqPKhRoQ2kevbqQMxa-93" value="" style="edgeStyle=orthogonalEdgeStyle;rounded=1;orthogonalLoop=1;jettySize=auto;html=1;exitX=1;exitY=0.174;exitDx=0;exitDy=0;entryX=0;entryY=0.5;entryDx=0;entryDy=0;strokeWidth=10;labelBackgroundColor=none;fontColor=default;exitPerimeter=0;fontStyle=1" parent="1" source="cDjqPKhRoQ2kevbqQMxa-59" target="cDjqPKhRoQ2kevbqQMxa-92" edge="1">
          <mxGeometry relative="1" as="geometry">
            <mxPoint x="2038" y="-324" as="sourcePoint" />
            <mxPoint x="2307" y="-381" as="targetPoint" />
          </mxGeometry>
        </mxCell>
        <mxCell id="cDjqPKhRoQ2kevbqQMxa-94" value="&lt;h1 style=&quot;&quot;&gt;&lt;font style=&quot;font-size: 40px;&quot;&gt;Diretor&lt;/font&gt;&lt;/h1&gt;&lt;h1 style=&quot;&quot;&gt;&lt;ol&gt;&lt;li&gt;&lt;span style=&quot;background-color: initial; font-size: 20px; text-align: left;&quot;&gt;Permite o usuário, a qualquer momento e em qualquer lugar, escrever comandos internos e executá-los&lt;/span&gt;&lt;/li&gt;&lt;/ol&gt;&lt;/h1&gt;" style="whiteSpace=wrap;html=1;aspect=fixed;align=center;labelBackgroundColor=none;rounded=1;fontStyle=1" parent="1" vertex="1">
          <mxGeometry x="2520" y="-1760" width="500" height="500" as="geometry" />
        </mxCell>
        <mxCell id="cDjqPKhRoQ2kevbqQMxa-95" style="edgeStyle=orthogonalEdgeStyle;rounded=1;orthogonalLoop=1;jettySize=auto;html=1;strokeWidth=30;labelBackgroundColor=none;fontColor=default;entryX=0;entryY=0.5;entryDx=0;entryDy=0;exitX=0.5;exitY=0;exitDx=0;exitDy=0;fontStyle=1" parent="1" source="cDjqPKhRoQ2kevbqQMxa-64" target="cDjqPKhRoQ2kevbqQMxa-94" edge="1">
          <mxGeometry relative="1" as="geometry">
            <mxPoint x="409" y="-633" as="sourcePoint" />
            <mxPoint x="1758" y="-324" as="targetPoint" />
          </mxGeometry>
        </mxCell>
        <mxCell id="cDjqPKhRoQ2kevbqQMxa-96" value="&lt;h1&gt;&lt;span style=&quot;&quot;&gt;Realce de Sintaxe&lt;/span&gt;&lt;/h1&gt;&lt;div style=&quot;text-align: left;&quot;&gt;&lt;ol style=&quot;&quot;&gt;&lt;li style=&quot;&quot;&gt;&lt;font style=&quot;font-size: 16px;&quot;&gt;&lt;span&gt;Permitir que o usuário altere ou carregue o seu próprio arquivo de realce de sintaxe&lt;/span&gt;&lt;/font&gt;&lt;/li&gt;&lt;/ol&gt;&lt;/div&gt;" style="whiteSpace=wrap;html=1;aspect=fixed;labelBackgroundColor=none;rounded=1;fontStyle=1" parent="1" vertex="1">
          <mxGeometry x="3760" y="-320" width="300" height="300" as="geometry" />
        </mxCell>
        <mxCell id="cDjqPKhRoQ2kevbqQMxa-97" value="" style="edgeStyle=orthogonalEdgeStyle;rounded=1;orthogonalLoop=1;jettySize=auto;html=1;exitX=1;exitY=0.5;exitDx=0;exitDy=0;entryX=0;entryY=0.5;entryDx=0;entryDy=0;strokeWidth=10;labelBackgroundColor=none;fontColor=default;fontStyle=1" parent="1" source="cDjqPKhRoQ2kevbqQMxa-67" target="cDjqPKhRoQ2kevbqQMxa-96" edge="1">
          <mxGeometry relative="1" as="geometry">
            <mxPoint x="2200" y="-24" as="sourcePoint" />
            <mxPoint x="2528" y="164" as="targetPoint" />
          </mxGeometry>
        </mxCell>
        <mxCell id="cDjqPKhRoQ2kevbqQMxa-98" value="&lt;h1 style=&quot;font-size: 24px;&quot;&gt;Terminal Debug&lt;/h1&gt;&lt;div style=&quot;text-align: left;&quot;&gt;&lt;ol&gt;&lt;li&gt;&lt;span&gt;&lt;font style=&quot;font-size: 16px;&quot;&gt;Ao executar o SAPHO, a saída de Debug é apresentada neste terminal&lt;/font&gt;&lt;/span&gt;&lt;/li&gt;&lt;/ol&gt;&lt;/div&gt;" style="whiteSpace=wrap;html=1;aspect=fixed;align=center;labelBackgroundColor=none;rounded=1;fontStyle=1" parent="1" vertex="1">
          <mxGeometry x="3760" y="70" width="300" height="300" as="geometry" />
        </mxCell>
        <mxCell id="cDjqPKhRoQ2kevbqQMxa-100" value="" style="edgeStyle=orthogonalEdgeStyle;rounded=1;orthogonalLoop=1;jettySize=auto;html=1;entryX=0;entryY=0.5;entryDx=0;entryDy=0;strokeWidth=10;labelBackgroundColor=none;fontColor=default;exitX=1.004;exitY=0.172;exitDx=0;exitDy=0;exitPerimeter=0;fontStyle=1" parent="1" source="cDjqPKhRoQ2kevbqQMxa-68" target="cDjqPKhRoQ2kevbqQMxa-98" edge="1">
          <mxGeometry relative="1" as="geometry">
            <mxPoint x="2554" y="486" as="sourcePoint" />
            <mxPoint x="2740" y="498" as="targetPoint" />
          </mxGeometry>
        </mxCell>
        <mxCell id="cDjqPKhRoQ2kevbqQMxa-101" value="&lt;h1 style=&quot;font-size: 24px;&quot;&gt;Terminal CMD/GNOME&lt;/h1&gt;&lt;div style=&quot;text-align: left;&quot;&gt;&lt;ol&gt;&lt;li&gt;&lt;font style=&quot;font-size: 16px;&quot;&gt;&lt;span&gt;Terminal CMD/GNOME  integrado para executar comandos diretamente no Windows ou Linux&lt;/span&gt;&lt;/font&gt;&lt;/li&gt;&lt;/ol&gt;&lt;/div&gt;" style="whiteSpace=wrap;html=1;aspect=fixed;align=center;labelBackgroundColor=none;rounded=1;fontStyle=1" parent="1" vertex="1">
          <mxGeometry x="3760" y="480" width="300" height="300" as="geometry" />
        </mxCell>
        <mxCell id="cDjqPKhRoQ2kevbqQMxa-102" value="" style="edgeStyle=orthogonalEdgeStyle;rounded=1;orthogonalLoop=1;jettySize=auto;html=1;entryX=0;entryY=0.5;entryDx=0;entryDy=0;strokeWidth=10;labelBackgroundColor=none;fontColor=default;exitX=1;exitY=0.454;exitDx=0;exitDy=0;exitPerimeter=0;fontStyle=1" parent="1" source="cDjqPKhRoQ2kevbqQMxa-68" target="cDjqPKhRoQ2kevbqQMxa-101" edge="1">
          <mxGeometry relative="1" as="geometry">
            <mxPoint x="2404" y="417" as="sourcePoint" />
            <mxPoint x="2818" y="387" as="targetPoint" />
          </mxGeometry>
        </mxCell>
        <mxCell id="cDjqPKhRoQ2kevbqQMxa-103" value="&lt;h1 style=&quot;font-size: 24px;&quot;&gt;Terminal Interno&lt;/h1&gt;&lt;div style=&quot;text-align: left;&quot;&gt;&lt;ol&gt;&lt;li&gt;&lt;font style=&quot;font-size: 16px;&quot;&gt;&lt;span&gt;Terminal interno que executa comandos na IDE com códigos próprios&lt;/span&gt;&lt;/font&gt;&lt;/li&gt;&lt;/ol&gt;&lt;/div&gt;" style="whiteSpace=wrap;html=1;aspect=fixed;align=center;labelBackgroundColor=none;rounded=1;fontStyle=1" parent="1" vertex="1">
          <mxGeometry x="3762" y="880" width="300" height="300" as="geometry" />
        </mxCell>
        <mxCell id="cDjqPKhRoQ2kevbqQMxa-104" value="" style="edgeStyle=orthogonalEdgeStyle;rounded=1;orthogonalLoop=1;jettySize=auto;html=1;strokeWidth=10;labelBackgroundColor=none;fontColor=default;entryX=0;entryY=0.5;entryDx=0;entryDy=0;exitX=1.001;exitY=0.805;exitDx=0;exitDy=0;exitPerimeter=0;fontStyle=1" parent="1" source="cDjqPKhRoQ2kevbqQMxa-68" target="cDjqPKhRoQ2kevbqQMxa-103" edge="1">
          <mxGeometry relative="1" as="geometry">
            <mxPoint x="2713" y="625" as="sourcePoint" />
            <mxPoint x="2792" y="922" as="targetPoint" />
          </mxGeometry>
        </mxCell>
        <mxCell id="cDjqPKhRoQ2kevbqQMxa-105" value="&lt;h1&gt;&lt;span&gt;&lt;span style=&quot;font-size: 18px;&quot;&gt;Compilar Aquivos CASM/ASMIF&lt;/span&gt;&lt;/span&gt;&lt;/h1&gt;&lt;div style=&quot;text-align: left; font-size: 14px;&quot;&gt;&lt;ol&gt;&lt;li&gt;&lt;span&gt;Criar arquivo de configuração de compilação;&lt;/span&gt;&lt;/li&gt;&lt;li&gt;&lt;span&gt;Em cada compilador, permitir compilar um, alguns ou todos os arquivos;&lt;/span&gt;&lt;/li&gt;&lt;li&gt;&lt;span&gt;Permitir compilar um, alguns, ou todos os projetos.&lt;/span&gt;&lt;/li&gt;&lt;/ol&gt;&lt;/div&gt;" style="whiteSpace=wrap;html=1;aspect=fixed;labelBackgroundColor=none;rounded=1;fontStyle=1" parent="1" vertex="1">
          <mxGeometry x="4400" y="-400" width="300" height="300" as="geometry" />
        </mxCell>
        <mxCell id="cDjqPKhRoQ2kevbqQMxa-106" value="" style="edgeStyle=orthogonalEdgeStyle;rounded=1;orthogonalLoop=1;jettySize=auto;html=1;exitX=1;exitY=0.5;exitDx=0;exitDy=0;entryX=0;entryY=0.5;entryDx=0;entryDy=0;strokeWidth=5;labelBackgroundColor=none;fontColor=default;fontStyle=1" parent="1" source="cDjqPKhRoQ2kevbqQMxa-82" target="cDjqPKhRoQ2kevbqQMxa-105" edge="1">
          <mxGeometry relative="1" as="geometry">
            <mxPoint x="2675" y="-436" as="sourcePoint" />
            <mxPoint x="2944" y="-493" as="targetPoint" />
          </mxGeometry>
        </mxCell>
        <mxCell id="cDjqPKhRoQ2kevbqQMxa-107" value="&lt;h1 style=&quot;&quot;&gt;&lt;span style=&quot;text-align: left; background-color: initial;&quot;&gt;&lt;font style=&quot;font-size: 40px;&quot;&gt;Configuração Global&lt;/font&gt;&lt;/span&gt;&lt;/h1&gt;&lt;div style=&quot;font-size: 20px;&quot; align=&quot;left&quot;&gt;&lt;ol&gt;&lt;li&gt;&lt;span&gt;Criar arquivo de config. global;&lt;/span&gt;&lt;/li&gt;&lt;li&gt;&lt;span&gt;Carregar arquivo global inicial IDE;&lt;/span&gt;&lt;/li&gt;&lt;li&gt;&lt;span&gt;Salvar Backup do ACG&lt;/span&gt;&lt;/li&gt;&lt;/ol&gt;&lt;/div&gt;" style="whiteSpace=wrap;html=1;aspect=fixed;align=center;labelBackgroundColor=none;rounded=1;fontStyle=1;" parent="1" vertex="1">
          <mxGeometry x="-960" y="-648" width="500" height="500" as="geometry" />
        </mxCell>
        <mxCell id="cDjqPKhRoQ2kevbqQMxa-108" style="edgeStyle=orthogonalEdgeStyle;rounded=1;orthogonalLoop=1;jettySize=auto;html=1;exitX=0;exitY=0.5;exitDx=0;exitDy=0;strokeWidth=30;labelBackgroundColor=none;fontColor=default;entryX=0.5;entryY=0;entryDx=0;entryDy=0;fontStyle=1" parent="1" source="cDjqPKhRoQ2kevbqQMxa-64" target="cDjqPKhRoQ2kevbqQMxa-107" edge="1">
          <mxGeometry relative="1" as="geometry">
            <mxPoint x="136" y="-128" as="sourcePoint" />
            <mxPoint x="-553" y="-524" as="targetPoint" />
          </mxGeometry>
        </mxCell>
        <mxCell id="cDjqPKhRoQ2kevbqQMxa-109" value="&lt;font size=&quot;1&quot;&gt;&lt;span style=&quot;font-size: 14px;&quot;&gt;Responsividade no Layout&lt;/span&gt;&lt;/font&gt;" style="rounded=1;whiteSpace=wrap;html=1;fontStyle=1;labelBackgroundColor=none;" parent="1" vertex="1">
          <mxGeometry x="-760" y="-1400" width="200" height="60" as="geometry" />
        </mxCell>
        <mxCell id="cDjqPKhRoQ2kevbqQMxa-110" style="edgeStyle=orthogonalEdgeStyle;rounded=1;orthogonalLoop=1;jettySize=auto;html=1;exitX=1;exitY=0.5;exitDx=0;exitDy=0;entryX=0;entryY=0;entryDx=0;entryDy=0;fontSize=5;strokeWidth=5;shadow=0;curved=0;labelBackgroundColor=none;fontColor=default;fontStyle=1" parent="1" source="cDjqPKhRoQ2kevbqQMxa-109" target="cDjqPKhRoQ2kevbqQMxa-64" edge="1">
          <mxGeometry relative="1" as="geometry">
            <mxPoint x="77" y="-502" as="sourcePoint" />
            <mxPoint x="201" y="-404" as="targetPoint" />
          </mxGeometry>
        </mxCell>
        <mxCell id="cDjqPKhRoQ2kevbqQMxa-112" style="edgeStyle=orthogonalEdgeStyle;rounded=1;orthogonalLoop=1;jettySize=auto;html=1;exitX=1;exitY=0.5;exitDx=0;exitDy=0;strokeWidth=10;labelBackgroundColor=none;fontColor=default;entryX=0.5;entryY=0;entryDx=0;entryDy=0;fontStyle=1" parent="1" source="cDjqPKhRoQ2kevbqQMxa-107" target="cDjqPKhRoQ2kevbqQMxa-61" edge="1">
          <mxGeometry relative="1" as="geometry">
            <mxPoint x="565" y="-538" as="sourcePoint" />
            <mxPoint x="1933" y="1128" as="targetPoint" />
          </mxGeometry>
        </mxCell>
        <mxCell id="cDjqPKhRoQ2kevbqQMxa-114" value="&lt;h1 style=&quot;font-size: 24px;&quot;&gt;About&lt;/h1&gt;&lt;div style=&quot;text-align: left; font-size: 16px;&quot;&gt;&lt;ol&gt;&lt;li&gt;&lt;span&gt;Versão da IDE;&lt;/span&gt;&lt;/li&gt;&lt;li&gt;&lt;span&gt;Versão do NIPSCERN.COM;&lt;/span&gt;&lt;/li&gt;&lt;li&gt;&lt;span&gt;Versão do SAPHO;&lt;/span&gt;&lt;/li&gt;&lt;li&gt;&lt;span&gt;Versão COMPILADORES;&lt;/span&gt;&lt;/li&gt;&lt;li&gt;&lt;span&gt;E-mail, site, endereço e GitHub;&lt;/span&gt;&lt;/li&gt;&lt;li&gt;&lt;span&gt;Documentação de Sapho, site e IDE;&lt;/span&gt;&lt;/li&gt;&lt;li&gt;&lt;span&gt;Licença&lt;/span&gt;&lt;/li&gt;&lt;/ol&gt;&lt;/div&gt;" style="whiteSpace=wrap;html=1;aspect=fixed;align=center;labelBackgroundColor=none;rounded=1;fontStyle=1" parent="1" vertex="1">
          <mxGeometry x="3760" y="1280" width="300" height="300" as="geometry" />
        </mxCell>
        <mxCell id="cDjqPKhRoQ2kevbqQMxa-115" style="edgeStyle=orthogonalEdgeStyle;rounded=1;orthogonalLoop=1;jettySize=auto;html=1;exitX=1;exitY=0.25;exitDx=0;exitDy=0;strokeWidth=10;labelBackgroundColor=none;fontColor=default;entryX=0;entryY=0.5;entryDx=0;entryDy=0;fontStyle=1" parent="1" source="cDjqPKhRoQ2kevbqQMxa-69" target="cDjqPKhRoQ2kevbqQMxa-114" edge="1">
          <mxGeometry relative="1" as="geometry">
            <mxPoint x="1160" y="-158" as="sourcePoint" />
            <mxPoint x="2041" y="1183" as="targetPoint" />
          </mxGeometry>
        </mxCell>
        <mxCell id="cDjqPKhRoQ2kevbqQMxa-116" value="&lt;h1 style=&quot;font-size: 24px;&quot;&gt;Command Help&lt;/h1&gt;&lt;div style=&quot;text-align: left;&quot;&gt;&lt;ol style=&quot;&quot;&gt;&lt;li style=&quot;&quot;&gt;&lt;span style=&quot;&quot;&gt;&lt;font style=&quot;font-size: 16px;&quot;&gt;Janela assistente que vai dizer todos os comandos e funcionalidades do terminal interno&lt;/font&gt;&lt;/span&gt;&lt;/li&gt;&lt;/ol&gt;&lt;/div&gt;" style="whiteSpace=wrap;html=1;aspect=fixed;align=center;labelBackgroundColor=none;rounded=1;fontStyle=1" parent="1" vertex="1">
          <mxGeometry x="3760" y="1680" width="300" height="300" as="geometry" />
        </mxCell>
        <mxCell id="cDjqPKhRoQ2kevbqQMxa-117" style="edgeStyle=orthogonalEdgeStyle;rounded=1;orthogonalLoop=1;jettySize=auto;html=1;exitX=1;exitY=0.5;exitDx=0;exitDy=0;strokeWidth=10;labelBackgroundColor=none;fontColor=default;entryX=0;entryY=0.5;entryDx=0;entryDy=0;fontStyle=1" parent="1" source="cDjqPKhRoQ2kevbqQMxa-69" target="cDjqPKhRoQ2kevbqQMxa-116" edge="1">
          <mxGeometry relative="1" as="geometry">
            <mxPoint x="2239" y="1218" as="sourcePoint" />
            <mxPoint x="2105" y="1511" as="targetPoint" />
          </mxGeometry>
        </mxCell>
        <mxCell id="cDjqPKhRoQ2kevbqQMxa-118" value="&lt;h1 style=&quot;font-size: 24px;&quot;&gt;Shortcut Help&lt;/h1&gt;&lt;div style=&quot;text-align: left;&quot;&gt;&lt;ol style=&quot;&quot;&gt;&lt;li style=&quot;&quot;&gt;&lt;span style=&quot;&quot;&gt;&lt;font style=&quot;font-size: 16px;&quot;&gt;Janela assistente que vai dizer todos os atalhos e funcionalidades&lt;/font&gt;&lt;/span&gt;&lt;/li&gt;&lt;/ol&gt;&lt;/div&gt;" style="whiteSpace=wrap;html=1;aspect=fixed;align=center;labelBackgroundColor=none;rounded=1;fontStyle=1" parent="1" vertex="1">
          <mxGeometry x="3760" y="2080" width="300" height="300" as="geometry" />
        </mxCell>
        <mxCell id="cDjqPKhRoQ2kevbqQMxa-119" style="edgeStyle=orthogonalEdgeStyle;rounded=1;orthogonalLoop=1;jettySize=auto;html=1;exitX=1;exitY=0.75;exitDx=0;exitDy=0;strokeWidth=10;labelBackgroundColor=none;fontColor=default;entryX=0;entryY=0.5;entryDx=0;entryDy=0;fontStyle=1" parent="1" source="cDjqPKhRoQ2kevbqQMxa-69" target="cDjqPKhRoQ2kevbqQMxa-118" edge="1">
          <mxGeometry relative="1" as="geometry">
            <mxPoint x="2199" y="1446" as="sourcePoint" />
            <mxPoint x="2101" y="1839" as="targetPoint" />
          </mxGeometry>
        </mxCell>
        <mxCell id="cDjqPKhRoQ2kevbqQMxa-120" value="&lt;h1 style=&quot;font-size: 24px;&quot;&gt;Settings&lt;/h1&gt;&lt;div style=&quot;text-align: left; font-size: 16px;&quot;&gt;&lt;ol&gt;&lt;li&gt;&lt;span&gt;Janela assistente que vai dizer todos os atalhos e funcionalidades;&lt;/span&gt;&lt;/li&gt;&lt;li&gt;&lt;span&gt;Escolher Idioma;&lt;/span&gt;&lt;/li&gt;&lt;li&gt;&lt;span&gt;Escolher Terminal;&lt;/span&gt;&lt;/li&gt;&lt;li&gt;&lt;span&gt;Escolher realce;&lt;/span&gt;&lt;/li&gt;&lt;li&gt;&lt;span&gt;Escolher Tema;&lt;/span&gt;&lt;/li&gt;&lt;/ol&gt;&lt;/div&gt;" style="whiteSpace=wrap;html=1;aspect=fixed;align=center;labelBackgroundColor=none;rounded=1;fontStyle=1" parent="1" vertex="1">
          <mxGeometry x="4640" y="2800" width="300" height="300" as="geometry" />
        </mxCell>
        <mxCell id="cDjqPKhRoQ2kevbqQMxa-121" style="edgeStyle=orthogonalEdgeStyle;rounded=1;orthogonalLoop=1;jettySize=auto;html=1;exitX=0.5;exitY=1;exitDx=0;exitDy=0;strokeWidth=10;labelBackgroundColor=none;fontColor=default;entryX=0;entryY=0.5;entryDx=0;entryDy=0;fontStyle=1" parent="1" source="cDjqPKhRoQ2kevbqQMxa-69" target="cDjqPKhRoQ2kevbqQMxa-120" edge="1">
          <mxGeometry relative="1" as="geometry">
            <mxPoint x="2193" y="1504.5" as="sourcePoint" />
            <mxPoint x="2091" y="2155.5" as="targetPoint" />
          </mxGeometry>
        </mxCell>
        <mxCell id="cDjqPKhRoQ2kevbqQMxa-123" style="edgeStyle=orthogonalEdgeStyle;rounded=1;orthogonalLoop=1;jettySize=auto;html=1;exitX=1;exitY=0.5;exitDx=0;exitDy=0;entryX=0.5;entryY=1;entryDx=0;entryDy=0;strokeWidth=5;labelBackgroundColor=none;fontColor=default;fontStyle=1" parent="1" source="cDjqPKhRoQ2kevbqQMxa-19" target="cDjqPKhRoQ2kevbqQMxa-120" edge="1">
          <mxGeometry relative="1" as="geometry">
            <mxPoint x="896" y="2027" as="sourcePoint" />
            <mxPoint x="977" y="2635" as="targetPoint" />
          </mxGeometry>
        </mxCell>
        <mxCell id="cDjqPKhRoQ2kevbqQMxa-124" style="edgeStyle=orthogonalEdgeStyle;rounded=1;orthogonalLoop=1;jettySize=auto;html=1;exitX=1;exitY=0.5;exitDx=0;exitDy=0;strokeWidth=5;labelBackgroundColor=none;fontColor=default;entryX=0.5;entryY=0;entryDx=0;entryDy=0;fontStyle=1" parent="1" source="cDjqPKhRoQ2kevbqQMxa-118" target="cDjqPKhRoQ2kevbqQMxa-120" edge="1">
          <mxGeometry relative="1" as="geometry">
            <mxPoint x="3229" y="1400" as="sourcePoint" />
            <mxPoint x="3653" y="2143" as="targetPoint" />
          </mxGeometry>
        </mxCell>
        <mxCell id="cDjqPKhRoQ2kevbqQMxa-125" style="edgeStyle=orthogonalEdgeStyle;rounded=1;orthogonalLoop=1;jettySize=auto;html=1;exitX=1;exitY=0.5;exitDx=0;exitDy=0;strokeWidth=5;labelBackgroundColor=none;fontColor=default;entryX=0.75;entryY=0;entryDx=0;entryDy=0;fontStyle=1" parent="1" source="cDjqPKhRoQ2kevbqQMxa-101" target="cDjqPKhRoQ2kevbqQMxa-120" edge="1">
          <mxGeometry relative="1" as="geometry">
            <mxPoint x="3335" y="1173" as="sourcePoint" />
            <mxPoint x="3759" y="1916" as="targetPoint" />
          </mxGeometry>
        </mxCell>
        <mxCell id="cDjqPKhRoQ2kevbqQMxa-126" value="&lt;h1 style=&quot;font-size: 24px;&quot;&gt;Realce de Sintaxe&lt;/h1&gt;&lt;div style=&quot;text-align: left; font-size: 16px;&quot;&gt;&lt;ol&gt;&lt;li&gt;&lt;span&gt;Escolher quais palavras reservadas e textos vão ser realçados e com qual paleta;&lt;/span&gt;&lt;/li&gt;&lt;li&gt;&lt;span&gt;Escolher a linguagem a ser realçada;&lt;/span&gt;&lt;/li&gt;&lt;li&gt;&lt;span&gt;Carregar arquivo de realce ou escolher presets&lt;/span&gt;&lt;/li&gt;&lt;/ol&gt;&lt;/div&gt;" style="whiteSpace=wrap;html=1;aspect=fixed;align=center;labelBackgroundColor=none;rounded=1;fontStyle=1" parent="1" vertex="1">
          <mxGeometry x="3760" y="2480" width="300" height="300" as="geometry" />
        </mxCell>
        <mxCell id="cDjqPKhRoQ2kevbqQMxa-127" style="edgeStyle=orthogonalEdgeStyle;rounded=1;orthogonalLoop=1;jettySize=auto;html=1;exitX=0.75;exitY=1;exitDx=0;exitDy=0;strokeWidth=10;labelBackgroundColor=none;fontColor=default;entryX=0;entryY=0.5;entryDx=0;entryDy=0;fontStyle=1" parent="1" source="cDjqPKhRoQ2kevbqQMxa-69" target="cDjqPKhRoQ2kevbqQMxa-126" edge="1">
          <mxGeometry relative="1" as="geometry">
            <mxPoint x="2158" y="1454.5" as="sourcePoint" />
            <mxPoint x="2131" y="2080.5" as="targetPoint" />
          </mxGeometry>
        </mxCell>
        <mxCell id="cDjqPKhRoQ2kevbqQMxa-128" value="&lt;h1 style=&quot;&quot;&gt;&lt;font style=&quot;font-size: 24px;&quot;&gt;Tema&lt;/font&gt;&lt;/h1&gt;&lt;div style=&quot;text-align: left; font-size: 16px;&quot;&gt;&lt;ol style=&quot;&quot;&gt;&lt;li&gt;&lt;span style=&quot;background-color: initial;&quot;&gt;&lt;span&gt;Definir tema da IDE;&lt;/span&gt;&lt;/span&gt;&lt;/li&gt;&lt;li style=&quot;&quot;&gt;&lt;span&gt;Permitir carregar ou alterar tema com os presets&lt;/span&gt;&lt;/li&gt;&lt;/ol&gt;&lt;/div&gt;" style="whiteSpace=wrap;html=1;aspect=fixed;align=center;labelBackgroundColor=none;rounded=1;fontStyle=1" parent="1" vertex="1">
          <mxGeometry x="3760" y="3080" width="300" height="300" as="geometry" />
        </mxCell>
        <mxCell id="cDjqPKhRoQ2kevbqQMxa-129" style="edgeStyle=orthogonalEdgeStyle;rounded=1;orthogonalLoop=1;jettySize=auto;html=1;exitX=0.179;exitY=1;exitDx=0;exitDy=0;strokeWidth=10;labelBackgroundColor=none;fontColor=default;entryX=0;entryY=0.5;entryDx=0;entryDy=0;exitPerimeter=0;fontStyle=1" parent="1" source="cDjqPKhRoQ2kevbqQMxa-69" target="cDjqPKhRoQ2kevbqQMxa-128" edge="1">
          <mxGeometry relative="1" as="geometry">
            <mxPoint x="2071" y="1605" as="sourcePoint" />
            <mxPoint x="2144" y="2402.5" as="targetPoint" />
          </mxGeometry>
        </mxCell>
        <mxCell id="cDjqPKhRoQ2kevbqQMxa-130" style="edgeStyle=orthogonalEdgeStyle;rounded=1;orthogonalLoop=1;jettySize=auto;html=1;exitX=1;exitY=0.5;exitDx=0;exitDy=0;strokeWidth=5;labelBackgroundColor=none;fontColor=default;entryX=0;entryY=0.25;entryDx=0;entryDy=0;fontStyle=1" parent="1" source="cDjqPKhRoQ2kevbqQMxa-126" target="cDjqPKhRoQ2kevbqQMxa-120" edge="1">
          <mxGeometry relative="1" as="geometry">
            <mxPoint x="2842" y="1966" as="sourcePoint" />
            <mxPoint x="3415" y="2227" as="targetPoint" />
          </mxGeometry>
        </mxCell>
        <mxCell id="cDjqPKhRoQ2kevbqQMxa-131" style="edgeStyle=orthogonalEdgeStyle;rounded=1;orthogonalLoop=1;jettySize=auto;html=1;exitX=1;exitY=0.5;exitDx=0;exitDy=0;strokeWidth=5;labelBackgroundColor=none;fontColor=default;entryX=0;entryY=0.75;entryDx=0;entryDy=0;fontStyle=1" parent="1" source="cDjqPKhRoQ2kevbqQMxa-128" target="cDjqPKhRoQ2kevbqQMxa-120" edge="1">
          <mxGeometry relative="1" as="geometry">
            <mxPoint x="2958" y="2705" as="sourcePoint" />
            <mxPoint x="3361" y="2745" as="targetPoint" />
          </mxGeometry>
        </mxCell>
        <mxCell id="cDjqPKhRoQ2kevbqQMxa-135" value="" style="edgeStyle=orthogonalEdgeStyle;rounded=1;orthogonalLoop=1;jettySize=auto;html=1;exitX=1;exitY=0.25;exitDx=0;exitDy=0;entryX=0.52;entryY=0;entryDx=0;entryDy=0;strokeWidth=5;labelBackgroundColor=none;fontColor=default;entryPerimeter=0;fontStyle=1" parent="1" source="cDjqPKhRoQ2kevbqQMxa-6" target="cDjqPKhRoQ2kevbqQMxa-52" edge="1">
          <mxGeometry relative="1" as="geometry">
            <mxPoint y="352" as="sourcePoint" />
            <mxPoint x="840" y="800" as="targetPoint" />
          </mxGeometry>
        </mxCell>
        <mxCell id="cDjqPKhRoQ2kevbqQMxa-13" value="&lt;h1&gt;&lt;font style=&quot;font-size: 24px;&quot;&gt;&lt;span&gt;Open Folder&lt;/span&gt;&lt;/font&gt;&lt;/h1&gt;&lt;div style=&quot;&quot;&gt;&lt;font style=&quot;font-size: 16px;&quot;&gt;&lt;span&gt;Abrir pasta na árvore de arquivos&lt;/span&gt;&lt;/font&gt;&lt;/div&gt;" style="whiteSpace=wrap;html=1;aspect=fixed;labelBackgroundColor=none;rounded=1;fontStyle=1" parent="1" vertex="1">
          <mxGeometry x="480" y="710" width="300" height="300" as="geometry" />
        </mxCell>
        <mxCell id="xHk7Rh6k_z-XQ07o8gDK-3" value="&lt;h1&gt;&lt;span style=&quot;font-size: 60px;&quot;&gt;O QUE FAZER&lt;/span&gt;&lt;/h1&gt;" style="swimlane;fontStyle=0;childLayout=stackLayout;horizontal=1;startSize=82;horizontalStack=0;resizeParent=1;resizeParentMax=1;resizeLast=1;collapsible=1;marginBottom=0;whiteSpace=wrap;html=1;" vertex="1" parent="1">
          <mxGeometry x="4940" y="-1852" width="900" height="652" as="geometry" />
        </mxCell>
        <mxCell id="xHk7Rh6k_z-XQ07o8gDK-9" value="" style="group" vertex="1" connectable="0" parent="xHk7Rh6k_z-XQ07o8gDK-3">
          <mxGeometry y="82" width="900" height="196" as="geometry" />
        </mxCell>
        <mxCell id="xHk7Rh6k_z-XQ07o8gDK-4" value="&lt;span style=&quot;background-color: initial; font-size: 40px; font-weight: 700;&quot;&gt;Cross-platform (Windows e Linux);&lt;/span&gt;" style="text;strokeColor=none;fillColor=none;align=left;verticalAlign=middle;spacingLeft=4;spacingRight=4;overflow=hidden;points=[[0,0.5],[1,0.5]];portConstraint=eastwest;rotatable=0;whiteSpace=wrap;html=1;fontSize=40;container=1;" vertex="1" parent="xHk7Rh6k_z-XQ07o8gDK-9">
          <mxGeometry width="900" height="90.46153846153847" as="geometry" />
        </mxCell>
        <mxCell id="xHk7Rh6k_z-XQ07o8gDK-5" value="&lt;h1 style=&quot;&quot;&gt;&lt;font style=&quot;font-size: 40px;&quot;&gt;Logo do CNPq e CERN;&lt;/font&gt;&lt;span style=&quot;background-color: initial;&quot;&gt;&lt;br&gt;&lt;/span&gt;&lt;/h1&gt;" style="text;strokeColor=none;fillColor=none;align=left;verticalAlign=middle;spacingLeft=4;spacingRight=4;overflow=hidden;points=[[0,0.5],[1,0.5]];portConstraint=eastwest;rotatable=0;whiteSpace=wrap;html=1;" vertex="1" parent="xHk7Rh6k_z-XQ07o8gDK-9">
          <mxGeometry y="90.46153846153847" width="900" height="105.53846153846155" as="geometry" />
        </mxCell>
        <mxCell id="xHk7Rh6k_z-XQ07o8gDK-10" value="&lt;h1 style=&quot;&quot;&gt;&lt;font style=&quot;font-size: 40px;&quot;&gt;Integração NIPSCERN DIRETOR&lt;/font&gt;&lt;span style=&quot;background-color: initial;&quot;&gt;&lt;br&gt;&lt;/span&gt;&lt;/h1&gt;" style="text;strokeColor=none;fillColor=none;align=left;verticalAlign=middle;spacingLeft=4;spacingRight=4;overflow=hidden;points=[[0,0.5],[1,0.5]];portConstraint=eastwest;rotatable=0;whiteSpace=wrap;html=1;" vertex="1" parent="xHk7Rh6k_z-XQ07o8gDK-3">
          <mxGeometry y="278" width="900" height="105.53846153846155" as="geometry" />
        </mxCell>
      </root>
    </mxGraphModel>
  </diagram>
</mxfile>
